<svg height="43" viewBox="0 0 156 43" width="156" xmlns="http://www.w3.org/2000/svg"><g fill-rule="evenodd"><path d="m30.1949615 15.6939432c-1.1149295 3.0501997-2.1526345 5.8758783-3.1806864 8.7046862-2.0086429 5.5261888-4.0084371 11.0562892-6.0178844 16.5816957-.7191536 1.9792268-.7794853 2.0167773-2.9184446 2.0144304-.8744072-.0007823-1.7488144-.0352036-2.6232217-.0273806-.538963.0046938-.9057796-.1900997-1.0940145-.6907736-.6330805-1.6819516-1.2959246-3.3537332-1.9008502-5.0458548-2.3119102-6.4751224-4.60773185-12.955721-6.9059668-19.4355372-1.49381249-4.212702-2.98601614-8.42618631-4.46695788-12.64279982-.36118568-1.03029313-.69904311-2.0691916-1.00231037-3.1174777-.2686771-.92702913.10377049-1.51062721 1.09803664-1.54739546 1.96922617-.07353648 3.94247445-.03755054 5.91411388-.06649576.84303473-.01329915 1.25972556.42557287 1.49622576 1.15233241.57194436 1.75314117 1.16158602 3.50237081 1.75042327 5.25003585 2.3505224 6.97501408 4.7026536 13.94924588 7.0547849 20.92269538.0764201.2268679.1624933.4506066.2928098.8073368.1311208-.2792822.2284559-.449042.2936142-.629754 2.7599734-7.6063327 5.5175336-15.2134476 8.2734849-22.82056261.4963286-1.37059497.9878308-2.74275454 1.4809417-4.1141318.2300648-.64148851.6507778-1.00134792 1.390042-.98100804.7979871.02268679 1.5983874.02503369 2.3955701-.00625843.8148799-.03207442 1.2355929.38489311 1.4704842 1.08036053.6210142 1.84075911 1.2436371 3.6799536 1.8751088 5.5175835 1.1696302 3.3998891 2.3521312 6.79508435 3.5169349 10.19575585 1.2589212 3.676042 2.5025583 7.3567779 3.755044 11.0351669.0683759.2010519.1480138.4005392.2678727.7220658.135143-.2847583.2365002-.4623411.3056805-.6516585 2.7543425-7.6094619 5.5070762-15.2197061 8.2565921-22.83073254.4207129-1.16406696.8277507-2.33282773 1.2355929-3.50158851.2598284-.7416233.7247846-1.17345459 1.5903432-1.16250234 1.7978842.02033987 3.598986-.05554352 5.3944569.01799297 1.4922037.06336654 1.8630424.68686208 1.3506253 2.08483766-1.1310179 3.07992715-2.2789288 6.15359588-3.433275 9.22491766-2.2210104 5.9157758-4.4548915 11.82764-6.6759019 17.7426335-1.4688754 3.9130799-2.9208579 7.8332005-4.3889289 11.7462805-.6403203 1.7054206-.736851 1.765658-2.5636944 1.7719164-.8494701.0031292-1.7021579-.0524143-2.5484103 0-.8993443.0571081-1.3852155-.3543833-1.6595235-1.1265164-.4400191-1.2360388-.9041709-2.4634724-1.3361457-3.7018581-2.349718-6.745017-4.693805-13.4908163-7.0354788-20.2381802-.2348913-.6782568-.4335837-1.3682481-.7070873-2.2342576"/><path d="m99.4553253 14.0391208c3.5777407.0954259 6.1745657 1.7411449 7.8773487 4.8508192.462816-.5445338.877455-.9913696 1.244707-1.4715288 1.431886-1.8683795 3.427681-2.8430875 5.740971-3.2202472 2.675803-.4369902 5.238666-.1029994 7.497461 1.4624406 1.988687 1.3783749 2.887466 3.3732316 3.252348 5.6240723.116889.7172094.173754 1.450323.176123 2.1766206.017375 5.2469126.014216 10.4938252.016586 15.7407378 0 .1416243-.010268.2824912-.018166.423358-.061603 1.107244-.367251 1.448051-1.505336 1.4768302-1.495069.0378675-2.993298.0371101-4.489157.0007574-1.198109-.0287793-1.542457-.438505-1.544826-1.7517478-.008688-4.0942278.017375-8.1884555-.017375-12.2826832-.010268-1.1458688-.096355-2.3053698-.307228-3.4323049-.293012-1.5714988-1.221013-2.7522056-2.917478-3.0967993-1.879696-.3817038-3.632237-.0908819-4.914063 1.4533524-.967491 1.1663172-1.355277 2.5719566-1.385289 4.0162208-.085297 4.1389113-.083718 8.2800946-.119258 12.4197633-.004739.4945488-.023694.9883402-.044228 1.4821316-.028433.6505627-.349087 1.1186043-1.052788 1.1314792-1.786501.0333233-3.574582.0272645-5.361083-.0030294-.621564-.0113602-.97223-.4006375-1.034623-.9974284-.03633-.3498952-.07582-.7005477-.07582-1.0512002-.006318-4.0472721.014216-8.0953015-.016585-12.1418163-.007898-1.0057592-.097934-2.0228787-.283534-3.0119762-.4770325-2.5454494-3.0659587-3.9980445-5.6572542-3.2346368-2.2027197.6505626-3.4648015 2.184194-3.5848493 4.6387615-.1295253 2.6295151-.1287355 5.2658463-.1579577 7.8983908-.0229039 2.0463566.0015796 4.0934704-.0078979 6.1413416-.0071081 1.482889-.3712005 1.8274827-1.9176061 1.8350562-1.324475.0068162-2.6505297.0159043-3.9750047-.0045441-1.2747184-.0204484-1.6340721-.3317188-1.6459189-1.5571092-.0323813-3.3883786-.0252732-6.7759999-.0284324-10.1643785-.0031591-4.1184629-.0071081-8.2354111.0031592-12.3538739.0039489-1.9221513.2558914-2.1660177 2.2414193-2.1690471 1.3236852-.0015147 2.6497399-.0015147 3.9694762.0825511 1.0180372.0643746 1.2557635.3476231 1.3347423 1.3306618.0402792.5043944.0071081 1.0133328.0071081 1.7472038 2.3377735-2.7953745 5.2039154-4.0813528 8.7003084-3.9881989z"/><path d="m74.2573338 24.8593087c-.3715198-3.2760554-3.1235189-5.4767169-6.5810999-5.31307-2.9186478.137931-5.4848869 2.5747116-5.5682113 5.31307zm-12.5231244 4.8073231c.122311 2.3440473.5282309 4.458989 2.3583102 5.9435003 2.7114835 2.1991029 7.2790375 1.6551717 9.422539-1.1517626.6428975-.8416127 1.2919106-1.1439699 2.3116791-.8914861 1.1252619.2781998 2.2910392.3818428 3.4254744.626534 1.2177596.261835 1.5166572.9039544.9830752 2.0681853-.8638219 1.8842774-2.2918036 3.2698213-4.0011008 4.3187202-1.0251197.6280924-2.1626126 1.0824074-3.28023 1.5351639-2.4951458 1.0114938-5.1034293 1.118254-7.6696684.5096433-2.6549146-.6304303-5.1829315-1.6497168-7.202593-3.6641325-2.0104882-2.0058437-3.1747367-4.4543133-3.5990032-7.2456622-.7086397-4.6647165-.0703289-9.0613637 2.7993946-12.9358994 1.5097772-2.0370145 3.5141499-3.3415142 5.9022735-4.0428582 3.1785588-.9335667 6.3754644-.9756473 9.5402633.0093513 4.374914 1.3621658 6.832602 4.6062711 8.0205483 8.9288877.3783998 1.3793097.4907731 2.8536905.5718042 4.2922249.0703289 1.2522886-.2522666 1.5156822-1.4662039 1.6458204-.376871.0405221-.7583286.0514319-1.137493.0514319-5.3449936.0031171-10.6892229.0023378-16.0334521.0023378z"/><path d="m155.165967 32.3074084c-.020488 5.0488066-2.800225 8.3640141-8.058126 9.8869328-3.03706.8795909-6.097066 1.0503926-9.151336.4559727-2.867424-.5567983-5.592255-1.5439868-7.556592-3.7267868-1.462804-1.6252492-2.23723-3.5364219-2.271649-5.6071098-.087686-5.2113316-.061463-10.4234156-.051629-15.636252.003278-1.4363892.269615-1.7110262 1.803716-1.7554196 1.598841-.0466507 3.202599.0338593 4.803898.0662138.696574.0135438 1.073543.367186 1.151395.9894457.042614.3468704.074574.6975028.075394 1.045878.004917 4.2768133-.005737 8.5551314.013112 12.8326971.002458.6726726.061462 1.3588889.213069 2.0157605.517104 2.2309555 2.348682 3.6522961 4.85143 3.7358159.853917.0285923 1.740614-.021068 2.567487-.2061659 2.101194-.4710213 3.448449-2.0383334 3.633655-4.192541.109813-1.2783789.124564-2.565787.131939-3.8494329.01639-3.342295.005737-6.6853424.005737-10.0276373 0-.1866027-.00082-.3739578.003278-.5605605.036058-1.5379673.289283-1.8208811 1.940571-1.8622647 1.473458-.0361167 2.953472-.0293448 4.424471.0564322 1.165326.0677187 1.445595.3965307 1.462804 1.4732584.026224 1.5665596.010654 3.1323669.011473 4.6989265.001639 1.051145.00082 2.1037949.00082 3.1549399-.003278 2.3370482.004097 4.6748488-.004917 7.011897z"/></g></svg>