<svg height="927" viewBox="0 0 881 927" width="881" xmlns="http://www.w3.org/2000/svg" xmlns:xlink="http://www.w3.org/1999/xlink"><defs><filter id="a" height="305.5%" width="148.7%" x="-24.4%" y="-102.7%"><feGaussianBlur in="SourceGraphic" stdDeviation="50"/></filter><rect id="b" height="640" rx="50.219997" width="461"/><filter id="c" height="109.1%" width="112.6%" x="-6.3%" y="-3.9%"><feOffset dx="0" dy="4" in="SourceAlpha" result="shadowOffsetOuter1"/><feGaussianBlur in="shadowOffsetOuter1" result="shadowBlurOuter1" stdDeviation="9"/><feColorMatrix in="shadowBlurOuter1" type="matrix" values="0 0 0 0 0   0 0 0 0 0   0 0 0 0 0  0 0 0 0.04 0"/></filter><filter id="d" height="107%" width="109.8%" x="-4.9%" y="-2.9%"><feGaussianBlur in="SourceAlpha" result="shadowBlurInner1" stdDeviation="4.5"/><feOffset dx="0" dy="0" in="shadowBlurInner1" result="shadowOffsetInner1"/><feComposite in="shadowOffsetInner1" in2="SourceAlpha" k2="-1" k3="1" operator="arithmetic" result="shadowInnerInner1"/><feColorMatrix in="shadowInnerInner1" result="shadowMatrixInner1" type="matrix" values="0 0 0 0 0   0 0 0 0 0   0 0 0 0 0  0 0 0 0.12 0"/><feGaussianBlur in="SourceAlpha" result="shadowBlurInner2" stdDeviation="1"/><feOffset dx="0" dy="0" in="shadowBlurInner2" result="shadowOffsetInner2"/><feComposite in="shadowOffsetInner2" in2="SourceAlpha" k2="-1" k3="1" operator="arithmetic" result="shadowInnerInner2"/><feColorMatrix in="shadowInnerInner2" result="shadowMatrixInner2" type="matrix" values="0 0 0 0 0   0 0 0 0 0   0 0 0 0 0  0 0 0 0.06 0"/><feMerge><feMergeNode in="shadowMatrixInner1"/><feMergeNode in="shadowMatrixInner2"/></feMerge></filter></defs><g fill="none" fill-rule="evenodd" transform="translate(86.773972 -4.621871)"><path d="m291.271817 696.88779c-163.733247-.40082-294.271817-7.936187-294.271817-17.173188 0-5.561277 66.4768388-8.550575 125.555646-34.043938-24.6219591-16.068806-39.0419562-32.394124-39.0419562-43.195152 0-28.336024 99.1689282-51.30691 221.5000002-51.30691s221.5 22.970886 221.5 51.30691c0 15.1638-28.377654 41.215956-73.508342 62.160267 95.3572 2.921694 159.994652 8.578968 159.994652 15.078823 0 9.233382-130.436285 16.766462-294.079351 17.172714-4.573729.185619-9.185083.281286-13.82994.281286-4.640899 0-9.248573-.095504-13.818864-.280811z" fill="#9cacc2" filter="url(#a)" transform="matrix(.87461971 .48480962 -.48480962 .87461971 340.843932 -69.608492)"/><g transform="matrix(.8660254 .5 -.5 .8660254 397.226027 .621871)"><use fill="#000" filter="url(#c)" xlink:href="#b"/><use fill="#fff" fill-rule="evenodd" xlink:href="#b"/><use fill="#000" filter="url(#d)" xlink:href="#b"/><g fill="#ededed"><circle cx="230.294213" cy="617.088715" r="13.567499"/><circle cx="230.337033" cy="24.964631" r="3.888"/></g></g></g></svg>