<svg height="773" viewBox="0 0 1468 773" width="1468" xmlns="http://www.w3.org/2000/svg" xmlns:xlink="http://www.w3.org/1999/xlink"><defs><filter id="a" height="385.7%" width="124.2%" x="-12.1%" y="-142.9%"><feGaussianBlur in="SourceGraphic" stdDeviation="50"/></filter><path id="b" d="m100.770809 44.2222251c0-24.4232605 19.797052-44.2222251 44.223225-44.2222251h803.327828c24.423812 0 44.223225 19.80576 44.223225 44.2222251v515.8673449c0 24.42326-19.797052 44.222225-44.223225 44.222225h-803.327828c-24.423812 0-44.223225-19.80576-44.223225-44.222225z"/><filter id="c" height="107.1%" width="104.8%" x="-2.4%" y="-2.9%"><feOffset dx="0" dy="4" in="SourceAlpha" result="shadowOffsetOuter1"/><feGaussianBlur in="shadowOffsetOuter1" result="shadowBlurOuter1" stdDeviation="6.5"/><feColorMatrix in="shadowBlurOuter1" type="matrix" values="0 0 0 0 0   0 0 0 0 0   0 0 0 0 0  0 0 0 0.04 0"/></filter><filter id="d" height="105.5%" width="103.7%" x="-1.9%" y="-2.1%"><feGaussianBlur in="SourceAlpha" result="shadowBlurInner1" stdDeviation="3.5"/><feOffset dx="0" dy="0" in="shadowBlurInner1" result="shadowOffsetInner1"/><feComposite in="shadowOffsetInner1" in2="SourceAlpha" k2="-1" k3="1" operator="arithmetic" result="shadowInnerInner1"/><feColorMatrix in="shadowInnerInner1" result="shadowMatrixInner1" type="matrix" values="0 0 0 0 0   0 0 0 0 0   0 0 0 0 0  0 0 0 0.12 0"/><feGaussianBlur in="SourceAlpha" result="shadowBlurInner2" stdDeviation="1"/><feOffset dx="0" dy="0" in="shadowBlurInner2" result="shadowOffsetInner2"/><feComposite in="shadowOffsetInner2" in2="SourceAlpha" k2="-1" k3="1" operator="arithmetic" result="shadowInnerInner2"/><feColorMatrix in="shadowInnerInner2" result="shadowMatrixInner2" type="matrix" values="0 0 0 0 0   0 0 0 0 0   0 0 0 0 0  0 0 0 0.06 0"/><feMerge><feMergeNode in="shadowMatrixInner1"/><feMergeNode in="shadowMatrixInner2"/></feMerge></filter><path id="e" d="m.62910528 587.569231c-.34744525-.000201-.62910528.278329-.62910528.63573v9.783284s30.1926325 15.933911 137.296086 17.986694c107.391639-.247285 780.479828 0 780.479828 0s131.364376 1.463223 175.224086-17.986694v-9.160393c0-.346361-.28048-.627305-.62911-.627507z"/><filter id="f" height="251.2%" width="103.9%" x="-2%" y="-61.6%"><feOffset dx="0" dy="4" in="SourceAlpha" result="shadowOffsetOuter1"/><feGaussianBlur in="shadowOffsetOuter1" result="shadowBlurOuter1" stdDeviation="6.5"/><feColorMatrix in="shadowBlurOuter1" type="matrix" values="0 0 0 0 0   0 0 0 0 0   0 0 0 0 0  0 0 0 0.04 0"/></filter><filter id="g" height="216.1%" width="103%" x="-1.5%" y="-44%"><feGaussianBlur in="SourceAlpha" result="shadowBlurInner1" stdDeviation="3.5"/><feOffset dx="0" dy="0" in="shadowBlurInner1" result="shadowOffsetInner1"/><feComposite in="shadowOffsetInner1" in2="SourceAlpha" k2="-1" k3="1" operator="arithmetic" result="shadowInnerInner1"/><feColorMatrix in="shadowInnerInner1" result="shadowMatrixInner1" type="matrix" values="0 0 0 0 0   0 0 0 0 0   0 0 0 0 0  0 0 0 0.12 0"/><feGaussianBlur in="SourceAlpha" result="shadowBlurInner2" stdDeviation="1"/><feOffset dx="0" dy="0" in="shadowBlurInner2" result="shadowOffsetInner2"/><feComposite in="shadowOffsetInner2" in2="SourceAlpha" k2="-1" k3="1" operator="arithmetic" result="shadowInnerInner2"/><feColorMatrix in="shadowInnerInner2" result="shadowMatrixInner2" type="matrix" values="0 0 0 0 0   0 0 0 0 0   0 0 0 0 0  0 0 0 0.06 0"/><feMerge><feMergeNode in="shadowMatrixInner1"/><feMergeNode in="shadowMatrixInner2"/></feMerge></filter></defs><g fill="none" fill-rule="evenodd" transform="translate(117 9)"><path d="m551.577319 636.999998c-398.003032-.003874-720.577319-5.478535-720.577319-12.231314 0-3.961273 155.9475748-6.088588 294.355756-24.281529.322534-.042395.677903-.08185 1.065558-.118431-58.8729064-11.686397-93.421314-23.611313-93.421314-31.469919 0-20.378647 232.140357-36.898805 518.5-36.898805s518.5 16.520158 518.5 36.898805c0 11.003428-67.62675 29.978827-174.928797 45.109291 225.082427 2.069579 377.928797 6.112276 377.928797 10.760588 0 6.755169-322.802695 12.231316-721 12.231316-.106562-.000007-.213132 0-.31971 0-.034327 0-.068653-.000001-.102979-.000002z" fill="#9cacc2" filter="url(#a)"/><use fill="#000" filter="url(#c)" xlink:href="#b"/><use fill="#fff" fill-rule="evenodd" xlink:href="#b"/><use fill="#000" filter="url(#d)" xlink:href="#b"/><circle cx="546.815945" cy="30.326185" fill="#ededed" r="3.7908"/><use fill="#000" filter="url(#f)" xlink:href="#e"/><use fill="#fff" fill-rule="evenodd" xlink:href="#e"/><use fill="#000" filter="url(#g)" xlink:href="#e"/><path d="m435.936416 586.937436h221.127168v2.524542c0 2.792902-2.252373 5.2307-5.038893 5.415057 0 0-22.813202 2.169119-105.088056 2.169119s-105.979351-2.177777-105.979351-2.177777c-2.772949-.19297-5.020868-2.603587-5.020868-5.406399z" fill="#f6f6f6"/></g></svg>