<svg height="238" viewBox="0 0 265 238" width="265" xmlns="http://www.w3.org/2000/svg" xmlns:xlink="http://www.w3.org/1999/xlink"><defs><filter id="a" height="306.2%" width="148.6%" x="-24.3%" y="-103.1%"><feGaussianBlur in="SourceGraphic" stdDeviation="14.8500005"/></filter><rect id="b" height="189.403341" rx="14.91534" width="137.08532"/><filter id="c" height="108.4%" width="111.7%" x="-5.8%" y="-3.7%"><feOffset dx="0" dy="1" in="SourceAlpha" result="shadowOffsetOuter1"/><feGaussianBlur in="shadowOffsetOuter1" result="shadowBlurOuter1" stdDeviation="2.5"/><feColorMatrix in="shadowBlurOuter1" type="matrix" values="0 0 0 0 0   0 0 0 0 0   0 0 0 0 0  0 0 0 0.04 0"/></filter><filter id="d" height="106.9%" width="109.5%" x="-4.7%" y="-2.9%"><feGaussianBlur in="SourceAlpha" result="shadowBlurInner1" stdDeviation="1.5"/><feOffset dx="0" dy="0" in="shadowBlurInner1" result="shadowOffsetInner1"/><feComposite in="shadowOffsetInner1" in2="SourceAlpha" k2="-1" k3="1" operator="arithmetic" result="shadowInnerInner1"/><feColorMatrix in="shadowInnerInner1" result="shadowMatrixInner1" type="matrix" values="0 0 0 0 0   0 0 0 0 0   0 0 0 0 0  0 0 0 0.12 0"/><feGaussianBlur in="SourceAlpha" result="shadowBlurInner2" stdDeviation=".5"/><feOffset dx="0" dy="0" in="shadowBlurInner2" result="shadowOffsetInner2"/><feComposite in="shadowOffsetInner2" in2="SourceAlpha" k2="-1" k3="1" operator="arithmetic" result="shadowInnerInner2"/><feColorMatrix in="shadowInnerInner2" result="shadowMatrixInner2" type="matrix" values="0 0 0 0 0   0 0 0 0 0   0 0 0 0 0  0 0 0 0.06 0"/><feMerge><feMergeNode in="shadowMatrixInner1"/><feMergeNode in="shadowMatrixInner2"/></feMerge></filter></defs><g fill="none" fill-rule="evenodd" transform="matrix(.70710678 .70710678 -.70710678 .70710678 145.389087 -80.473394)"><path d="m86.6140785 206.238869c-48.6885565-.11862-87.50617386-2.348657-87.50617386-5.08228 0-1.64582 19.76789306-2.530481 37.33586956-10.075056-7.3217117-4.755446-11.6097159-9.586805-11.6097159-12.783291 0-8.38584 29.4893801-15.183906 65.8663739-15.183906s65.8663738 6.798066 65.8663738 15.183906c0 4.487617-8.438524 12.197562-21.858817 18.395879 28.355905.864654 47.576829 2.538883 47.576829 4.462468 0 2.732552-38.787201 4.961912-87.4489413 5.082139-1.3600673.054933-2.7313231.083245-4.1125417.083245-1.3800415 0-2.7502031-.028264-4.1092482-.083104z" fill="#9cacc2" filter="url(#a)" transform="matrix(.87461971 .48480962 -.48480962 .87461971 100.924674 -20.810452)"/><g transform="matrix(.8660254 .5 -.5 .8660254 117.893581 .020107)"><use fill="#000" filter="url(#c)" xlink:href="#b"/><use fill="#fff" fill-rule="evenodd" xlink:href="#b"/><use fill="#000" filter="url(#d)" xlink:href="#b"/><g fill="#ededed"><circle cx="68.476512" cy="182.637258" r="4.029547"/><circle cx="68.781464" cy="7.680895" r="1.44342"/></g></g></g></svg>