<svg height="545" viewBox="0 0 500 545" width="500" xmlns="http://www.w3.org/2000/svg" xmlns:xlink="http://www.w3.org/1999/xlink"><defs><filter id="a" height="139.5%" width="129.6%" x="-15.7%" y="-9.9%"><feOffset dx="-4" dy="68" in="SourceAlpha" result="shadowOffsetOuter1"/><feGaussianBlur in="shadowOffsetOuter1" result="shadowBlurOuter1" stdDeviation="11"/><feColorMatrix in="shadowBlurOuter1" type="matrix" values="0 0 0 0 0.690196078   0 0 0 0 0.737254902   0 0 0 0 0.811764706  0 0 0 0.9 0"/></filter><path id="b" d="m195.133021 2.16437338-176.4842 57.40356212c-14.18043263 4.6123525-21.93689408 19.8469149-17.32454158 34.0273475.46147289 1.4187738 1.03974713 2.7968576 1.72888402 4.1200986l207.24148756 397.9331924c9.480447 18.203809 30.867124 26.713428 50.26235 19.999059l198.323033-68.656785c13.151783-4.552972 20.122496-18.90551 15.569525-32.057293-.542665-1.567551-1.238783-3.077689-2.078223-4.508439l-228.725024-389.8412059c-9.839325-16.77024301-30.023193-24.43365842-48.513291-18.41953672z"/><filter id="c" height="103.9%" width="104.2%" x="-2.1%" y="-1.9%"><feGaussianBlur in="SourceAlpha" result="shadowBlurInner1" stdDeviation="4.5"/><feOffset dx="4" dy="-9" in="shadowBlurInner1" result="shadowOffsetInner1"/><feComposite in="shadowOffsetInner1" in2="SourceAlpha" k2="-1" k3="1" operator="arithmetic" result="shadowInnerInner1"/><feColorMatrix in="shadowInnerInner1" result="shadowMatrixInner1" type="matrix" values="0 0 0 0 0.0529157158   0 0 0 0 0.780160502   0 0 0 0 0.546836133  0 0 0 0.0482336957 0"/><feGaussianBlur in="SourceAlpha" result="shadowBlurInner2" stdDeviation="4.5"/><feOffset dx="2" dy="-9" in="shadowBlurInner2" result="shadowOffsetInner2"/><feComposite in="shadowOffsetInner2" in2="SourceAlpha" k2="-1" k3="1" operator="arithmetic" result="shadowInnerInner2"/><feColorMatrix in="shadowInnerInner2" result="shadowMatrixInner2" type="matrix" values="0 0 0 0 0.738551109   0 0 0 0 0.736292828   0 0 0 0 0.829931973  0 0 0 0.609290082 0"/><feGaussianBlur in="SourceAlpha" result="shadowBlurInner3" stdDeviation="6.5"/><feOffset dx="4" dy="-7" in="shadowBlurInner3" result="shadowOffsetInner3"/><feComposite in="shadowOffsetInner3" in2="SourceAlpha" k2="-1" k3="1" operator="arithmetic" result="shadowInnerInner3"/><feColorMatrix in="shadowInnerInner3" result="shadowMatrixInner3" type="matrix" values="0 0 0 0 0.704020577   0 0 0 0 0.776018746   0 0 0 0 0.836017219  0 0 0 0.408882473 0"/><feMerge><feMergeNode in="shadowMatrixInner1"/><feMergeNode in="shadowMatrixInner2"/><feMergeNode in="shadowMatrixInner3"/></feMerge></filter></defs><g fill="none" fill-rule="evenodd" transform="matrix(-1 0 0 1 476 0)"><path d="m195.309726 2.10689823-174.7696441 56.84588237c-14.1804326 4.6123525-21.93689405 19.8469149-17.32454156 34.0273475.62705465 1.9278462 1.46923729 3.778938 2.51062487 5.5182771l201.93625979 337.2765618c9.441794 15.769808 28.15044 23.426353 45.939126 18.800666l182.440038-47.440865c13.469627-3.502579 21.549516-17.261272 18.046936-30.730899-.596401-2.293539-1.51334-4.491486-2.723719-6.528885l-207.656769-349.5432994c-9.88753-16.64342467-29.988759-24.21270969-48.398311-18.22478637z" fill="#000" filter="url(#a)"/><use fill="#fff" fill-rule="evenodd" xlink:href="#b"/><use fill="#000" filter="url(#c)" xlink:href="#b"/></g></svg>