<svg height="204" viewBox="0 0 259 204" width="259" xmlns="http://www.w3.org/2000/svg" xmlns:xlink="http://www.w3.org/1999/xlink"><defs><filter id="a" height="386%" width="124.1%" x="-12.1%" y="-143%"><feGaussianBlur in="SourceGraphic" stdDeviation="13.200002"/></filter><path id="b" d="m26.6769542 11.67107c0-6.44575397 5.2338686-11.67107 11.6668767-11.67107h212.7447471c6.443438 0 11.666877 5.23479587 11.666877 11.67107v136.036795c0 6.445754-5.233869 11.67107-11.666877 11.67107h-212.7447471c-6.4434381 0-11.6668767-5.234796-11.6668767-11.67107z"/><filter id="c" height="108.2%" width="105.5%" x="-2.8%" y="-3.5%"><feOffset dx="0" dy="1" in="SourceAlpha" result="shadowOffsetOuter1"/><feGaussianBlur in="shadowOffsetOuter1" result="shadowBlurOuter1" stdDeviation="2"/><feColorMatrix in="shadowBlurOuter1" type="matrix" values="0 0 0 0 0   0 0 0 0 0   0 0 0 0 0  0 0 0 0.04 0"/></filter><filter id="d" height="105.6%" width="103.8%" x="-1.9%" y="-2.2%"><feGaussianBlur in="SourceAlpha" result="shadowBlurInner1" stdDeviation=".5"/><feOffset dx="0" dy="0" in="shadowBlurInner1" result="shadowOffsetInner1"/><feComposite in="shadowOffsetInner1" in2="SourceAlpha" k2="-1" k3="1" operator="arithmetic" result="shadowInnerInner1"/><feColorMatrix in="shadowInnerInner1" result="shadowMatrixInner1" type="matrix" values="0 0 0 0 0   0 0 0 0 0   0 0 0 0 0  0 0 0 0.12 0"/><feGaussianBlur in="SourceAlpha" result="shadowBlurInner2" stdDeviation=".5"/><feOffset dx="0" dy="0" in="shadowBlurInner2" result="shadowOffsetInner2"/><feComposite in="shadowOffsetInner2" in2="SourceAlpha" k2="-1" k3="1" operator="arithmetic" result="shadowInnerInner2"/><feColorMatrix in="shadowInnerInner2" result="shadowMatrixInner2" type="matrix" values="0 0 0 0 0   0 0 0 0 0   0 0 0 0 0  0 0 0 0.06 0"/><feMerge><feMergeNode in="shadowMatrixInner1"/><feMergeNode in="shadowMatrixInner2"/></feMerge></filter><path id="e" d="m.16077648 154.96331c-.0887944-.000051-.16077648.067835-.16077648.163576v2.5843s7.992865 4.20235 36.3462538 4.743743c28.4296797-.065218 206.6156342 0 206.6156342 0s34.775958.385905 46.386894-4.743743v-2.411961c0-.093539-.082244-.169415-.160776-.16946z"/><filter id="f" height="273.4%" width="104.5%" x="-2.2%" y="-73.4%"><feOffset dx="0" dy="1" in="SourceAlpha" result="shadowOffsetOuter1"/><feGaussianBlur in="shadowOffsetOuter1" result="shadowBlurOuter1" stdDeviation="2"/><feColorMatrix in="shadowBlurOuter1" type="matrix" values="0 0 0 0 0   0 0 0 0 0   0 0 0 0 0  0 0 0 0.04 0"/></filter><filter id="g" height="220%" width="103.1%" x="-1.6%" y="-46.7%"><feGaussianBlur in="SourceAlpha" result="shadowBlurInner1" stdDeviation=".5"/><feOffset dx="0" dy="0" in="shadowBlurInner1" result="shadowOffsetInner1"/><feComposite in="shadowOffsetInner1" in2="SourceAlpha" k2="-1" k3="1" operator="arithmetic" result="shadowInnerInner1"/><feColorMatrix in="shadowInnerInner1" result="shadowMatrixInner1" type="matrix" values="0 0 0 0 0   0 0 0 0 0   0 0 0 0 0  0 0 0 0.12 0"/><feGaussianBlur in="SourceAlpha" result="shadowBlurInner2" stdDeviation=".5"/><feOffset dx="0" dy="0" in="shadowBlurInner2" result="shadowOffsetInner2"/><feComposite in="shadowOffsetInner2" in2="SourceAlpha" k2="-1" k3="1" operator="arithmetic" result="shadowInnerInner2"/><feColorMatrix in="shadowInnerInner2" result="shadowMatrixInner2" type="matrix" values="0 0 0 0 0   0 0 0 0 0   0 0 0 0 0  0 0 0 0.06 0"/><feMerge><feMergeNode in="shadowMatrixInner1"/><feMergeNode in="shadowMatrixInner2"/></feMerge></filter></defs><g fill="none" fill-rule="evenodd" transform="translate(31 3)"><path d="m146.018505 167.999999c-105.3629397-.001021-190.7577037-1.444888-190.7577037-3.225841 0-1.044731 41.2838434-1.605781 77.9245009-6.403919.0853841-.011182.1794606-.021587.282084-.031235-15.5853647-3.082126-24.73132964-6.227159-24.73132964-8.299759 0-5.374588 61.45428154-9.731553 137.26197944-9.731553 75.807698 0 137.26198 4.356965 137.26198 9.731553 0 2.902003-17.90276 7.906504-46.308723 11.896956 59.585844.545823 100.048707 1.612029 100.048707 2.837957 0 1.781584-85.45523 3.225842-190.869599 3.225842-.028211-.000002-.056423 0-.084637 0-.009086 0-.018173 0-.027259-.000001z" fill="#9cacc2" filter="url(#a)"/><use fill="#000" filter="url(#c)" xlink:href="#b"/><use fill="#fff" fill-rule="evenodd" xlink:href="#b"/><use fill="#000" filter="url(#d)" xlink:href="#b"/><circle cx="144.755267" cy="7.999114" fill="#ededed" r="1.000771"/><use fill="#000" filter="url(#f)" xlink:href="#e"/><use fill="#fff" fill-rule="evenodd" xlink:href="#e"/><use fill="#000" filter="url(#g)" xlink:href="#e"/><path d="m115.405006 154.796686h58.538771v.665814c0 .736589-.596269 1.379525-1.328254 1.427794 0 0-6.045003.572428-27.825542.572428s-28.070092-.575231-28.070092-.575231c-.72619-.050412-1.314883-.680387-1.314883-1.424991z" fill="#f6f6f6"/></g></svg>