<svg width="97px" height="52px" viewBox="0 0 97 52" version="1.1" xmlns="http://www.w3.org/2000/svg" xmlns:xlink="http://www.w3.org/1999/xlink">
    <!-- Generator: Sketch 51.3 (57544) - http://www.bohemiancoding.com/sketch -->
    <desc>Created with Sketch.</desc>
    <defs></defs>
    <g id="web" stroke="none" stroke-width="1" fill="none" fill-rule="evenodd">
        <g id="Desktop-HD" transform="translate(-537.000000, -23.000000)">
            <g id="Logo" transform="translate(536.000000, 23.000000)">
                <path d="M75.9442848,4.42434 L96.4603513,38.3017015 C98.8012293,42.1670998 97.5653613,47.1982808 93.699963,49.5391588 C92.4216928,50.3132768 90.9558292,50.7225397 89.4614285,50.7225397 L48.4292956,50.7225397 C43.910334,50.7225397 40.2469918,47.0591976 40.2469918,42.540236 C40.2469918,41.0458353 40.6562547,39.5799717 41.4303728,38.3017015 L61.9464392,4.42434 C64.2873172,0.558941675 69.3184982,-0.676926261 73.1838965,1.6639517 C74.3132612,2.34789284 75.2603437,3.2949753 75.9442848,4.42434 Z" id="Triangle-Copy-14" fill="#6AE561" transform="translate(68.946180, 25.861270) rotate(-180.000000) translate(-68.946180, -25.861270) "></path>
                <path d="M37.0514277,4.42434 L57.5674942,38.3017015 C59.9083721,42.1670998 58.6725042,47.1982808 54.8071059,49.5391588 C53.5288357,50.3132768 52.062972,50.7225397 50.5685714,50.7225397 L9.53643842,50.7225397 C5.01747683,50.7225397 1.35413466,47.0591976 1.35413466,42.540236 C1.35413466,41.0458353 1.76339761,39.5799717 2.53751563,38.3017015 L23.0535821,4.42434 C25.3944601,0.558941675 30.4256411,-0.676926261 34.2910394,1.6639517 C35.4204041,2.34789284 36.3674865,3.2949753 37.0514277,4.42434 Z" id="Triangle-Copy-14" fill="#4D8CF1" transform="translate(30.053323, 25.861270) rotate(-180.000000) translate(-30.053323, -25.861270) "></path>
                <path d="M75.9442848,3.42434 L96.4603513,37.3017015 C98.8012293,41.1670998 97.5653613,46.1982808 93.699963,48.5391588 C92.4216928,49.3132768 90.9558292,49.7225397 89.4614285,49.7225397 L48.4292956,49.7225397 C43.910334,49.7225397 40.2469918,46.0591976 40.2469918,41.540236 C40.2469918,40.0458353 40.6562547,38.5799717 41.4303728,37.3017015 L61.9464392,3.42434 C64.2873172,-0.441058325 69.3184982,-1.67692626 73.1838965,0.663951702 C74.3132612,1.34789284 75.2603437,2.2949753 75.9442848,3.42434 Z" id="Triangle-Copy-14" fill="#6AE561" style="mix-blend-mode: screen;" transform="translate(68.946180, 24.861270) rotate(-180.000000) translate(-68.946180, -24.861270) "></path>
            </g>
        </g>
    </g>
</svg>
