<svg height="52" viewBox="0 0 97 52" width="97" xmlns="http://www.w3.org/2000/svg"><g fill="none" fill-rule="evenodd" transform="translate(-1)"><path d="m75.9442848 4.42434 20.5160665 33.8773615c2.340878 3.8653983 1.10501 8.8965793-2.7603883 11.2374573-1.2782702.774118-2.7441338 1.1833809-4.2385345 1.1833809h-41.0321329c-4.5189616 0-8.1823038-3.6633421-8.1823038-8.1823037 0-1.4944007.4092629-2.9602643 1.183381-4.2385345l20.5160664-33.8773615c2.340878-3.86539832 7.372059-5.10126626 11.2374573-2.7603883 1.1293647.68394114 2.0764472 1.6310236 2.7603883 2.7603883z" fill="#6ae561" transform="matrix(-1 0 0 -1 137.89236 51.72254)"/><path d="m37.0514277 4.42434 20.5160665 33.8773615c2.3408779 3.8653983 1.10501 8.8965793-2.7603883 11.2374573-1.2782702.774118-2.7441339 1.1833809-4.2385345 1.1833809h-41.03213298c-4.51896159 0-8.18230376-3.6633421-8.18230376-8.1823037 0-1.4944007.40926295-2.9602643 1.18338097-4.2385345l20.51606647-33.8773615c2.340878-3.86539832 7.372059-5.10126626 11.2374573-2.7603883 1.1293647.68394114 2.0764471 1.6310236 2.7603883 2.7603883z" fill="#4d8cf1" transform="matrix(-1 0 0 -1 60.106646 51.72254)"/><path d="m75.9442848 3.42434 20.5160665 33.8773615c2.340878 3.8653983 1.10501 8.8965793-2.7603883 11.2374573-1.2782702.774118-2.7441338 1.1833809-4.2385345 1.1833809h-41.0321329c-4.5189616 0-8.1823038-3.6633421-8.1823038-8.1823037 0-1.4944007.4092629-2.9602643 1.183381-4.2385345l20.5160664-33.8773615c2.340878-3.86539833 7.372059-5.10126626 11.2374573-2.7603883 1.1293647.68394114 2.0764472 1.6310236 2.7603883 2.7603883z" fill="#6ae561" transform="matrix(-1 0 0 -1 137.89236 49.72254)"/></g></svg>